P1
30 30
011111111111101111111111111110
111111111011010111101101111111
111111011111111111111111101111
111111111111011111111111011111
111111111011111110111111111111
110111111011111111110111111111
111111111111111111111111111111
110111111111110111111110111111
101110111110111111010111101111
111111111011111111111111111111
111111111110111111111111101111
111011111111111011111111111111
111111111111111111101111011111
101111111110111111111111111111
111001011101111110110111111111
110111111111111111101111111111
111111111111011111111111101111
111111111111111111111111001111
111011011111111111101110001111
111111011111111111111111111111
111111111011101111111111011111
111001111111111111111110001111
101111111111111101111111111111
111111111111111110111111111111
111111111111111000111111111111
111111111111111111111101111111
111100111111111111111100111111
111101100011111111111100011111
011111111111111111111111111110
000000000000000000000000000000
