P1
30 30
001000000000000000000000000000
000100000000000000000000000000
011100000000000000000000000000
000000000000000000000000000000
000000000000000000000000000000
000000000000000000000000000000
000000000000000000000000000000
000000000000000000000000000000
000000000000000001000000000000
000000000001000010100000000000
000000000000000000000000000000
000000000100000000000000000000
000000000000001001000000000000
000000000000000000000000000000
000000000000000000000000000000
000010000000001110000010000000
000000100000000000000000000000
000000000000000000000000000000
000000000000000000000000000000
000000000010000000000000000000
010000100000000000000000000000
000000000000000000000000000000
000000000000000000000000000000
000000000100000000000000000000
000000000000000000000000000000
000000010000000000000000011000
000000000000000000000000011000
000000000000000000000000000000
000000000000000000000000000000
000000000000000000000000000000
